<?xml version="1.0" encoding="UTF-8" standalone="no"?>
<!-- Generator: Adobe Illustrator 13.0.2, SVG Export Plug-In . SVG Version: 6.00 Build 14948)  -->

<svg
   xmlns:dc="http://purl.org/dc/elements/1.1/"
   xmlns:cc="http://creativecommons.org/ns#"
   xmlns:rdf="http://www.w3.org/1999/02/22-rdf-syntax-ns#"
   xmlns:svg="http://www.w3.org/2000/svg"
   xmlns="http://www.w3.org/2000/svg"
   xmlns:sodipodi="http://sodipodi.sourceforge.net/DTD/sodipodi-0.dtd"
   xmlns:inkscape="http://www.inkscape.org/namespaces/inkscape"
   width="191.38"
   x="0px"
   version="1.1"
   y="0px"
   height="124.29"
   viewBox="0 0 153.10399 99.43201"
   id="svg4760"
   inkscape:version="0.48.3.1 r9886"
   sodipodi:docname="batterypack_3xAAA.svg">
  <metadata
     id="metadata4971">
    <rdf:RDF>
      <cc:Work
         rdf:about="">
        <dc:format>image/svg+xml</dc:format>
        <dc:type
           rdf:resource="http://purl.org/dc/dcmitype/StillImage" />
        <dc:title></dc:title>
      </cc:Work>
    </rdf:RDF>
  </metadata>
  <defs
     id="defs4969" />
  <sodipodi:namedview
     pagecolor="#ffffff"
     bordercolor="#666666"
     borderopacity="1"
     objecttolerance="10"
     gridtolerance="10"
     guidetolerance="10"
     inkscape:pageopacity="0"
     inkscape:pageshadow="2"
     inkscape:window-width="1600"
     inkscape:window-height="850"
     id="namedview4967"
     showgrid="true"
     inkscape:showpageshadow="false"
     units="px"
     inkscape:zoom="4.0130456"
     inkscape:cx="99.596074"
     inkscape:cy="67.529758"
     inkscape:window-x="0"
     inkscape:window-y="0"
     inkscape:window-maximized="1"
     inkscape:current-layer="svg4760">
    <inkscape:grid
       type="xygrid"
       id="grid5481"
       empspacing="5"
       visible="true"
       enabled="true"
       snapvisiblegridlinesonly="true"
       dotted="true"
       units="in"
       spacingx="0.01in"
       spacingy="0.01in" />
  </sodipodi:namedview>
  <g
     id="g5829">
    <rect
       width="3"
       x="150.42599"
       y="33.382477"
       height="1"
       id="connector1pin"
       style="fill:none" />
    <line
       id="connector0leg"
       x1="153.10001"
       y1="69.169586"
       x2="158.10001"
       y2="69.169586"
       style="fill:none;stroke:#000000;stroke-width:2.50340009;stroke-linecap:round" />
    <line
       id="connector1leg"
       x1="153.10001"
       y1="33.382477"
       x2="158.10001"
       y2="33.382477"
       style="fill:none;stroke:#ff0000;stroke-width:2.50340009;stroke-linecap:round" />
    <path
       d="m 147.467,69.170013 5.633,0"
       id="path4963"
       inkscape:connector-curvature="0"
       style="fill:none;stroke:#000000;stroke-width:2.50340009" />
    <path
       sodipodi:nodetypes="cc"
       d="m 140.256,33.383009 12.844,0"
       id="path4965"
       inkscape:connector-curvature="0"
       style="fill:none;stroke:#ff0000;stroke-width:2.50340009" />
    <g
       transform="translate(0,-33.33499)"
       id="g5736">
      <rect
         style="fill:none"
         id="connector0pin"
         height="1"
         y="102.505"
         x="147.467"
         width="2.9990001" />
      <path
         style="fill:#1a1a1a"
         inkscape:connector-curvature="0"
         id="path4767"
         d="m 147.45,131.48035 c 0,0.75941 -1.094,1.28665 -2.055,1.28665 H 2.059 c -1.362,0 -2.057,-0.43138 -2.057,-1.28665 V 34.619394 c 0,-0.677774 0.848,-1.2844 2.057,-1.2844 h 143.336 c 1.113,0 2.055,0.510764 2.055,1.2844 v 47.352782 49.508174 z" />
      <rect
         style="fill:#c9c9c9"
         id="rect4773"
         height="12.025"
         y="43.058998"
         x="1.706"
         width="3.46" />
      <path
         d="m 7.764,61.726 c 0,1.781 1.746,3.24 3.883,3.24 h 121.924 c 2.136,0 3.883,-1.459 3.883,-3.24 V 37.963 c 0,-1.781 -1.747,-3.24 -3.883,-3.24 H 11.647 c -2.137,0 -3.883,1.458 -3.883,3.24 v 23.763 z"
         id="path4817"
         inkscape:connector-curvature="0"
         style="fill:#353535" />
      <path
         d="M 45.356,34.726 H 11.647 c -2.137,0 -3.883,1.458 -3.883,3.239 v 23.763 c 0,1.781 1.746,3.24 3.883,3.24 H 45.356 V 34.726 l 0,0 z"
         id="path4819"
         inkscape:connector-curvature="0"
         style="fill:#ce925d" />
      <path
         enable-background="new    "
         d="m 133.278,63.729 c 1.607,0 3.657,-1.244 3.657,-2.715 v -6.801 c 0,1.473 -2.05,3.782 -3.657,3.782 H 12.235 c -1.607,0 -3.658,-2.309 -3.658,-3.782 v 6.801 c 0,1.474 2.051,2.715 3.658,2.715 h 121.043 z"
         id="path4821"
         inkscape:connector-curvature="0"
         style="opacity:0.35" />
      <path
         d="m 7.873,49.645 c 0,6.774 0.311,12.263 0.693,12.263 0.383,0 0.383,-24.524 0,-24.524 -0.383,0 -0.693,5.49 -0.693,12.261"
         id="path4823"
         inkscape:connector-curvature="0"
         style="fill:#b2b2b2" />
      <path
         d="m 8.131,53.827 c 0.253,0 0.253,-9.062 0,-9.062 l 0.007,10e-4 c 0,0.558 -0.542,1.011 -1.209,1.011 H 6.377 c -0.666,0 -1.212,0.455 -1.212,1.012 V 51.8 c 0,0.557 0.546,1.012 1.212,1.012 h 0.551 c 0.667,0 1.209,0.452 1.209,1.012 l -0.006,0.003 0,0 z"
         id="path4825"
         inkscape:connector-curvature="0"
         style="fill:#7c7c7c" />
      <g
         id="g4827">
        <g
           id="g4829">
          <path
             d="m 112.387,50.167 0.516,-1.297 h 1.632 l -2.728,6.853 h -2.322 l -2.781,-6.853 h 1.6 l 0.537,1.297 h 3.546 z m -1.784,4.55 h 0.021 l 1.402,-3.555 h -2.837 l 1.414,3.555 z"
             id="path4831"
             inkscape:connector-curvature="0"
             style="fill:#e0e0e0" />
          <path
             d="m 120.387,50.167 0.516,-1.297 h 1.632 l -2.728,6.853 h -2.322 l -2.781,-6.853 h 1.6 l 0.537,1.297 h 3.546 z m -1.784,4.55 h 0.021 l 1.402,-3.555 h -2.837 l 1.414,3.555 z"
             id="path4833"
             inkscape:connector-curvature="0"
             style="fill:#e0e0e0" />
          <path
             d="m 104.618,50.167 0.515,-1.297 h 1.633 l -2.728,6.853 h -2.322 L 98.935,48.87 h 1.599 l 0.537,1.297 h 3.547 z m -1.785,4.55 h 0.022 l 1.401,-3.555 h -2.838 l 1.415,3.555 z"
             id="path4835"
             inkscape:connector-curvature="0"
             style="fill:#e0e0e0" />
          <path
             d="m 94.406,48.867 v 6.853 h -4.09 c -1.609,0 -2.417,-0.271 -2.417,-1.782 0,-0.784 0.173,-1.316 1.169,-1.514 v -0.039 c -1.15,-0.11 -1.368,-0.741 -1.368,-1.606 0,-1.518 0.742,-1.91 2.477,-1.91 l 4.229,-0.002 0,0 z m -1.578,1.125 h -2.157 c -0.939,0 -1.39,0.055 -1.39,0.895 0,0.749 0.198,0.969 1.127,0.969 h 2.418 l 0.002,-1.864 0,0 z m 0,2.86 h -2.266 c -0.89,0 -1.084,0.228 -1.084,0.96 0,0.731 0.35,0.787 1.127,0.787 h 2.224 l -10e-4,-1.747 0,0 z"
             id="path4837"
             inkscape:connector-curvature="0"
             style="fill:#e0e0e0" />
          <path
             d="m 82.824,49.471 h 0.033 c 0.273,-0.643 1.116,-0.658 1.785,-0.658 1.304,0 2.148,0.228 2.148,1.525 0,1.152 -0.723,1.472 -2.148,1.472 -0.701,0 -1.39,-0.009 -1.718,-0.549 H 82.88 v 0.622 c 0,0.777 0.077,1.05 1.226,1.05 0.603,0 1.085,-0.046 1.085,-0.666 h 1.384 c 0,1.397 -1.151,1.45 -2.466,1.45 -1.838,0 -2.605,-0.238 -2.605,-1.847 v -3.005 h 1.38 l -0.06,0.606 z m 2.584,0.868 c 0,-0.676 -0.326,-0.74 -1.259,-0.74 -0.735,0 -1.271,0.052 -1.271,0.74 0,0.667 0.589,0.686 1.271,0.686 0.702,0 1.259,0 1.259,-0.686 z"
             id="path4839"
             inkscape:connector-curvature="0"
             style="fill:#e0e0e0" />
          <path
             d="m 80.828,53.666 h -0.723 v 1.087 H 78.724 V 53.666 H 76.523 V 52.79 h 2.201 v -2.46 c -0.013,-0.439 -0.013,-0.642 -0.59,-0.642 -0.778,0 -0.69,0.513 -0.69,1.016 h -1.215 c -0.022,-1.452 0.417,-1.89 1.906,-1.89 1.511,0 1.972,0.292 1.972,1.507 v 2.467 h 0.723 l -0.002,0.878 0,0 z"
             id="path4841"
             inkscape:connector-curvature="0"
             style="fill:#e0e0e0" />
          <path
             d="m 76.17,53.666 h -0.723 v 1.087 h -1.38 V 53.666 H 71.865 V 52.79 h 2.202 v -2.46 c -0.011,-0.439 -0.011,-0.642 -0.589,-0.642 -0.78,0 -0.691,0.513 -0.691,1.016 H 71.57 c -0.02,-1.452 0.418,-1.89 1.908,-1.89 1.508,0 1.969,0.292 1.969,1.507 v 2.467 h 0.723 l 0,0.878 0,0 z"
             id="path4843"
             inkscape:connector-curvature="0"
             style="fill:#e0e0e0" />
          <path
             d="m 65.697,50.394 c 0,-1.508 1.042,-1.581 2.683,-1.581 2.202,0 2.647,0.585 2.647,2.44 0,1.72 -0.326,2.466 -2.647,2.466 -2.368,0 -2.683,-0.576 -2.683,-2.669 h 3.954 c 0,-1.032 -0.033,-1.362 -1.27,-1.362 -0.768,0 -1.306,-0.009 -1.306,0.706 h -1.378 l 0,0 z m 1.38,1.389 c 0,0.987 0.175,1.063 1.306,1.063 1.195,0 1.271,-0.209 1.271,-1.063 h -2.577 z"
             id="path4845"
             inkscape:connector-curvature="0"
             style="fill:#e0e0e0" />
          <path
             d="m 63.317,53.666 0.03,-0.631 h -0.055 c -0.274,0.531 -0.866,0.684 -1.534,0.684 -1.215,0 -1.511,-0.604 -1.511,-1.508 v -0.384 h 1.292 v 0.247 c 0,0.484 0.055,0.768 0.701,0.768 0.821,0 1.062,-0.396 1.043,-1.014 v -2.961 h 1.38 v 4.797 l -1.346,0.002 0,0 z"
             id="path4847"
             inkscape:connector-curvature="0"
             style="fill:#e0e0e0" />
          <path
             d="m 56.12,48.674 c 0.32,-1.088 0.583,-1.936 2.189,-1.936 0.197,0 0.395,0.025 0.592,0.036 v 0.869 c -0.099,-0.009 -0.2,-0.027 -0.296,-0.027 -0.866,0 -0.997,0.695 -1.121,1.254 h 0.668 l 1.895,4.798 H 58.62 l -1.457,-4.085 h -0.021 l -1.118,4.085 h -1.402 l 1.498,-4.994 z"
             id="path4849"
             inkscape:connector-curvature="0"
             style="fill:#e0e0e0" />
        </g>
      </g>
      <path
         enable-background="new    "
         d="m 11.53,43.658 c 0,1.082 1.406,1.955 3.139,1.955 h 116.276 c 1.732,0 3.141,-0.799 3.141,-1.879 v -5.895 c 0,-1.081 -1.408,-2.033 -3.141,-2.033 H 14.671 c -1.732,0 -3.14,0.876 -3.14,1.957 l -0.001,5.895 0,0 z"
         id="path4851"
         inkscape:connector-curvature="0"
         style="opacity:0.35;fill:#ffffff" />
      <path
         style="fill:none;stroke:#c9c9c9;stroke-width:0.83450001"
         inkscape:connector-curvature="0"
         id="path4853"
         d="M 2.145,113.432 V 73.396 c 0,-0.591 0.388,-1.079 0.863,-1.079 0.475,0 0.86,0.488 0.86,1.079 l 0.913,19.527 c 0,0.595 0.391,1.08 0.863,1.08 0.472,0 0.863,-0.485 0.863,-1.08 L 7.42,77.795 c 0,-0.594 0.389,-1.08 0.861,-1.08 0.475,0 0.861,0.486 0.861,1.08 v 11.887" />
      <path
         style="fill:none;stroke:#c9c9c9;stroke-width:0.83450001"
         inkscape:connector-curvature="0"
         id="path4857"
         d="m 137.709,111.262 v 11.887 c 0,0.594 0.39,1.081 0.861,1.081 0.476,0 0.862,-0.487 0.862,-1.081 l 0.914,-15.128 c 0,-0.594 0.387,-1.08 0.861,-1.08 0.474,0 0.86,0.486 0.86,1.08 l 0.913,19.528 c 0,0.592 0.391,1.078 0.862,1.078 0.473,0 0.863,-0.486 0.863,-1.078 v -23.965 c 0,-0.59 0.584,-1.079 1.295,-1.079 h 1.465" />
      <rect
         style="fill:#c9c9c9"
         id="rect4859"
         height="12.025"
         y="109.155"
         x="1.706"
         width="3.46" />
      <rect
         style="fill:#c9c9c9"
         id="rect4861"
         height="12.028"
         y="76.530998"
         x="141.869"
         width="2.95" />
      <path
         d="m 139.273,95.051 c 0,1.783 -1.747,3.24 -3.883,3.24 H 13.464 c -2.136,0 -3.883,-1.457 -3.883,-3.24 v -23.76 c 0,-1.781 1.747,-3.239 3.883,-3.239 H 135.39 c 2.137,0 3.884,1.458 3.884,3.239 l -0.001,23.76 0,0 z"
         id="path4865"
         inkscape:connector-curvature="0"
         style="fill:#353535" />
      <path
         d="m 101.94,68.101 h 33.709 c 2.136,0 3.883,1.456 3.883,3.239 v 23.766 c 0,1.782 -1.747,3.24 -3.883,3.24 H 101.94 V 68.101 z"
         id="path4867"
         inkscape:connector-curvature="0"
         style="fill:#ce925d" />
      <path
         enable-background="new    "
         d="m 13.758,97.052 c -1.607,0 -3.658,-1.241 -3.658,-2.714 v -6.801 c 0,1.474 2.051,3.783 3.658,3.783 h 121.041 c 1.608,0 3.659,-2.31 3.659,-3.783 v 6.802 c 0,1.474 -2.051,2.714 -3.659,2.714 l -121.041,-10e-4 0,0 z"
         id="path4869"
         inkscape:connector-curvature="0"
         style="opacity:0.35" />
      <path
         d="m 139.164,82.97 c 0,6.774 -0.31,12.263 -0.691,12.263 -0.381,0 -0.382,-24.523 0,-24.523 0.382,0 0.691,5.489 0.691,12.26"
         id="path4871"
         inkscape:connector-curvature="0"
         style="fill:#b2b2b2" />
      <path
         d="m 138.906,87.151 c -0.254,0 -0.254,-9.062 0,-9.062 l -0.008,0.001 c 0,0.559 0.543,1.011 1.212,1.011 h 0.549 c 0.668,0 1.211,0.452 1.211,1.012 v 5.011 c 0,0.557 -0.543,1.013 -1.211,1.013 h -0.549 c -0.669,0 -1.212,0.452 -1.212,1.011 l 0.008,0.003 0,0 z"
         id="path4873"
         inkscape:connector-curvature="0"
         style="fill:#7c7c7c" />
      <g
         id="g4875">
        <g
           id="g4877">
          <path
             d="m 35.434,80.895 -0.515,1.296 h -1.632 l 2.727,-6.852 h 2.322 l 2.781,6.852 h -1.599 l -0.536,-1.296 h -3.548 z m 1.784,-4.55 h -0.022 l -1.401,3.556 h 2.836 l -1.413,-3.556 z"
             id="path4879"
             inkscape:connector-curvature="0"
             style="fill:#e0e0e0" />
          <path
             d="m 27.472,80.895 -0.515,1.296 h -1.632 l 2.727,-6.852 h 2.322 l 2.781,6.852 H 31.556 L 31.02,80.895 h -3.548 z m 1.784,-4.55 h -0.022 l -1.401,3.556 h 2.836 l -1.413,-3.556 z"
             id="path4881"
             inkscape:connector-curvature="0"
             style="fill:#e0e0e0" />
          <path
             d="m 43.203,80.895 -0.515,1.296 h -1.629 l 2.724,-6.852 h 2.322 l 2.782,6.852 h -1.599 l -0.536,-1.296 h -3.549 z m 1.784,-4.55 h -0.021 l -1.403,3.556 h 2.836 l -1.412,-3.556 z"
             id="path4883"
             inkscape:connector-curvature="0"
             style="fill:#e0e0e0" />
          <path
             d="m 53.417,82.194 v -6.853 h 4.088 c 1.61,0 2.417,0.272 2.417,1.782 0,0.783 -0.173,1.316 -1.169,1.516 v 0.038 c 1.15,0.11 1.369,0.741 1.369,1.606 0,1.518 -0.745,1.91 -2.476,1.91 h -4.229 l 0,0.001 z m 1.577,-3.985 h 2.264 c 0.891,0 1.085,-0.229 1.085,-0.959 0,-0.73 -0.351,-0.786 -1.128,-0.786 h -2.224 l 0.003,1.745 0,0 z m 0,2.86 h 2.158 c 0.938,0 1.389,-0.055 1.389,-0.895 0,-0.749 -0.197,-0.969 -1.125,-0.969 h -2.42 l -0.002,1.864 0,0 z"
             id="path4885"
             inkscape:connector-curvature="0"
             style="fill:#e0e0e0" />
          <path
             d="m 64.998,81.59 h -0.033 c -0.274,0.641 -1.117,0.657 -1.786,0.657 -1.303,0 -2.146,-0.229 -2.146,-1.526 0,-1.151 0.723,-1.471 2.146,-1.471 0.702,0 1.391,0.009 1.72,0.548 h 0.044 v -0.622 c 0,-0.776 -0.077,-1.051 -1.227,-1.051 -0.603,0 -1.085,0.048 -1.085,0.667 H 61.25 c 0,-1.397 1.153,-1.45 2.464,-1.45 1.843,0 2.606,0.237 2.606,1.846 v 3.004 h -1.382 l 0.06,-0.602 z m -2.585,-0.868 c 0,0.677 0.326,0.741 1.259,0.741 0.733,0 1.271,-0.053 1.271,-0.741 0,-0.667 -0.59,-0.685 -1.271,-0.685 -0.701,0 -1.259,0 -1.259,0.685 z"
             id="path4887"
             inkscape:connector-curvature="0"
             style="fill:#e0e0e0" />
          <path
             d="m 66.994,77.396 h 0.724 v -1.088 h 1.38 v 1.088 h 2.201 v 0.877 h -2.201 v 2.458 c 0.013,0.439 0.013,0.639 0.59,0.639 0.778,0 0.69,-0.51 0.69,-1.011 h 1.216 c 0.022,1.45 -0.417,1.889 -1.906,1.889 -1.511,0 -1.972,-0.292 -1.972,-1.509 v -2.467 h -0.724 l 0.002,-0.876 0,0 z"
             id="path4889"
             inkscape:connector-curvature="0"
             style="fill:#e0e0e0" />
          <path
             d="m 71.652,77.396 h 0.723 v -1.088 h 1.38 v 1.088 h 2.202 v 0.877 h -2.202 v 2.458 c 0.011,0.439 0.011,0.639 0.59,0.639 0.779,0 0.691,-0.51 0.691,-1.011 h 1.216 c 0.021,1.45 -0.417,1.889 -1.907,1.889 -1.509,0 -1.969,-0.292 -1.969,-1.509 v -2.467 h -0.724 l 0,-0.876 0,0 z"
             id="path4891"
             inkscape:connector-curvature="0"
             style="fill:#e0e0e0" />
          <path
             d="m 82.125,80.668 c 0,1.508 -1.042,1.58 -2.683,1.58 -2.202,0 -2.647,-0.584 -2.647,-2.439 0,-1.719 0.326,-2.465 2.647,-2.465 2.368,0 2.683,0.576 2.683,2.668 h -3.954 c 0,1.032 0.033,1.361 1.27,1.361 0.767,0 1.306,0.01 1.306,-0.705 h 1.378 l 0,0 z m -1.38,-1.389 c 0,-0.987 -0.175,-1.062 -1.306,-1.062 -1.194,0 -1.27,0.21 -1.27,1.062 h 2.576 z"
             id="path4893"
             inkscape:connector-curvature="0"
             style="fill:#e0e0e0" />
          <path
             d="m 84.505,77.396 -0.03,0.631 h 0.055 c 0.274,-0.53 0.866,-0.684 1.533,-0.684 1.216,0 1.512,0.604 1.512,1.508 v 0.384 h -1.292 v -0.246 c 0,-0.484 -0.056,-0.769 -0.702,-0.769 -0.821,0 -1.062,0.396 -1.042,1.015 v 2.961 h -1.381 v -4.797 l 1.347,-0.003 0,0 z"
             id="path4895"
             inkscape:connector-curvature="0"
             style="fill:#e0e0e0" />
          <path
             d="m 91.702,82.385 c -0.32,1.088 -0.584,1.936 -2.19,1.936 -0.197,0 -0.394,-0.025 -0.591,-0.037 v -0.868 c 0.099,0.009 0.201,0.028 0.295,0.028 0.865,0 0.997,-0.695 1.12,-1.255 h -0.667 l -1.895,-4.798 h 1.427 l 1.456,4.085 h 0.02 l 1.119,-4.085 h 1.402 l -1.496,4.994 z"
             id="path4897"
             inkscape:connector-curvature="0"
             style="fill:#e0e0e0" />
        </g>
      </g>
      <path
         enable-background="new    "
         d="m 135.506,76.983 c 0,1.08 -1.406,1.956 -3.141,1.956 H 16.089 c -1.732,0 -3.14,-0.8 -3.14,-1.88 v -5.895 c 0,-1.08 1.406,-2.033 3.14,-2.033 h 116.275 c 1.735,0 3.143,0.877 3.143,1.957 v 5.895 l -0.001,0 z"
         id="path4899"
         inkscape:connector-curvature="0"
         style="opacity:0.35;fill:#ffffff" />
      <path
         d="m 7.764,127.822 c 0,1.78 1.746,3.24 3.883,3.24 h 121.924 c 2.136,0 3.883,-1.46 3.883,-3.24 v -23.763 c 0,-1.781 -1.747,-3.24 -3.883,-3.24 H 11.647 c -2.137,0 -3.883,1.459 -3.883,3.24 v 23.763 z"
         id="path4903"
         inkscape:connector-curvature="0"
         style="fill:#353535" />
      <path
         d="M 45.356,100.822 H 11.647 c -2.137,0 -3.883,1.458 -3.883,3.239 v 23.764 c 0,1.781 1.746,3.239 3.883,3.239 h 33.709 v -30.242 l 0,0 z"
         id="path4905"
         inkscape:connector-curvature="0"
         style="fill:#ce925d" />
      <path
         enable-background="new    "
         d="m 133.278,129.825 c 1.607,0 3.657,-1.244 3.657,-2.715 v -6.802 c 0,1.474 -2.05,3.782 -3.657,3.782 H 12.235 c -1.607,0 -3.658,-2.309 -3.658,-3.782 v 6.802 c 0,1.474 2.051,2.715 3.658,2.715 h 121.043 z"
         id="path4907"
         inkscape:connector-curvature="0"
         style="opacity:0.35" />
      <path
         d="m 7.873,115.741 c 0,6.773 0.311,12.264 0.693,12.264 0.383,0 0.383,-24.525 0,-24.525 -0.383,-0.001 -0.693,5.489 -0.693,12.261"
         id="path4909"
         inkscape:connector-curvature="0"
         style="fill:#b2b2b2" />
      <path
         d="m 8.131,119.922 c 0.253,0 0.253,-9.062 0,-9.062 l 0.007,0.001 c 0,0.559 -0.542,1.011 -1.209,1.011 H 6.377 c -0.666,0 -1.212,0.455 -1.212,1.012 v 5.012 c 0,0.557 0.546,1.012 1.212,1.012 h 0.551 c 0.667,0 1.209,0.452 1.209,1.013 l -0.006,10e-4 0,0 z"
         id="path4911"
         inkscape:connector-curvature="0"
         style="fill:#7c7c7c" />
      <g
         id="g4913">
        <g
           id="g4915">
          <path
             d="m 112.387,116.262 0.516,-1.297 h 1.632 l -2.728,6.853 h -2.322 l -2.781,-6.853 h 1.6 l 0.537,1.297 h 3.546 z m -1.784,4.551 h 0.021 l 1.402,-3.555 h -2.837 l 1.414,3.555 z"
             id="path4917"
             inkscape:connector-curvature="0"
             style="fill:#e0e0e0" />
          <path
             d="m 120.387,116.262 0.516,-1.297 h 1.632 l -2.728,6.853 h -2.322 l -2.781,-6.853 h 1.6 l 0.537,1.297 h 3.546 z m -1.784,4.551 h 0.021 l 1.402,-3.555 h -2.837 l 1.414,3.555 z"
             id="path4919"
             inkscape:connector-curvature="0"
             style="fill:#e0e0e0" />
          <path
             d="m 104.618,116.262 0.515,-1.297 h 1.633 l -2.728,6.853 h -2.322 l -2.781,-6.853 h 1.599 l 0.537,1.297 h 3.547 z m -1.785,4.551 h 0.022 l 1.401,-3.555 h -2.838 l 1.415,3.555 z"
             id="path4921"
             inkscape:connector-curvature="0"
             style="fill:#e0e0e0" />
          <path
             d="m 94.406,114.963 v 6.852 h -4.09 c -1.609,0 -2.417,-0.271 -2.417,-1.781 0,-0.784 0.173,-1.316 1.169,-1.515 v -0.039 c -1.15,-0.11 -1.368,-0.741 -1.368,-1.606 0,-1.518 0.742,-1.91 2.477,-1.91 h 4.229 l 0,-0.001 z m -1.578,1.125 h -2.157 c -0.939,0 -1.39,0.055 -1.39,0.895 0,0.749 0.198,0.969 1.127,0.969 h 2.418 l 0.002,-1.864 0,0 z m 0,2.86 h -2.266 c -0.89,0 -1.084,0.229 -1.084,0.96 0,0.731 0.35,0.786 1.127,0.786 h 2.224 l -10e-4,-1.746 0,0 z"
             id="path4923"
             inkscape:connector-curvature="0"
             style="fill:#e0e0e0" />
          <path
             d="m 82.824,115.567 h 0.033 c 0.273,-0.643 1.116,-0.658 1.785,-0.658 1.304,0 2.148,0.228 2.148,1.525 0,1.151 -0.723,1.472 -2.148,1.472 -0.701,0 -1.39,-0.009 -1.718,-0.55 H 82.88 v 0.623 c 0,0.776 0.077,1.05 1.226,1.05 0.603,0 1.085,-0.046 1.085,-0.666 h 1.384 c 0,1.397 -1.151,1.45 -2.466,1.45 -1.838,0 -2.605,-0.238 -2.605,-1.847 v -3.005 h 1.38 l -0.06,0.606 z m 2.584,0.867 c 0,-0.676 -0.326,-0.739 -1.259,-0.739 -0.735,0 -1.271,0.052 -1.271,0.739 0,0.668 0.589,0.686 1.271,0.686 0.702,0.002 1.259,0.002 1.259,-0.686 z"
             id="path4925"
             inkscape:connector-curvature="0"
             style="fill:#e0e0e0" />
          <path
             d="m 80.828,119.762 h -0.723 v 1.087 h -1.381 v -1.087 h -2.201 v -0.877 h 2.201 v -2.459 c -0.013,-0.439 -0.013,-0.643 -0.59,-0.643 -0.778,0 -0.69,0.514 -0.69,1.016 h -1.215 c -0.022,-1.451 0.417,-1.89 1.906,-1.89 1.511,0 1.972,0.292 1.972,1.507 v 2.467 h 0.723 l -0.002,0.879 0,0 z"
             id="path4927"
             inkscape:connector-curvature="0"
             style="fill:#e0e0e0" />
          <path
             d="m 76.17,119.762 h -0.723 v 1.087 h -1.38 v -1.087 h -2.202 v -0.877 h 2.202 v -2.459 c -0.011,-0.439 -0.011,-0.643 -0.589,-0.643 -0.78,0 -0.691,0.514 -0.691,1.016 H 71.57 c -0.02,-1.451 0.418,-1.89 1.908,-1.89 1.508,0 1.969,0.292 1.969,1.507 v 2.467 h 0.723 l 0,0.879 0,0 z"
             id="path4929"
             inkscape:connector-curvature="0"
             style="fill:#e0e0e0" />
          <path
             d="m 65.697,116.489 c 0,-1.508 1.042,-1.58 2.683,-1.58 2.202,0 2.647,0.585 2.647,2.439 0,1.721 -0.326,2.467 -2.647,2.467 -2.368,0 -2.683,-0.576 -2.683,-2.67 h 3.954 c 0,-1.031 -0.033,-1.361 -1.27,-1.361 -0.768,0 -1.306,-0.01 -1.306,0.705 h -1.378 l 0,0 z m 1.38,1.39 c 0,0.986 0.175,1.062 1.306,1.062 1.195,0 1.271,-0.209 1.271,-1.062 h -2.577 z"
             id="path4931"
             inkscape:connector-curvature="0"
             style="fill:#e0e0e0" />
          <path
             d="m 63.317,119.762 0.03,-0.631 h -0.055 c -0.274,0.531 -0.866,0.684 -1.534,0.684 -1.215,0 -1.511,-0.604 -1.511,-1.508 v -0.385 h 1.292 v 0.246 c 0,0.484 0.055,0.768 0.701,0.768 0.821,0 1.062,-0.396 1.043,-1.014 v -2.961 h 1.38 v 4.797 l -1.346,0.004 0,0 z"
             id="path4933"
             inkscape:connector-curvature="0"
             style="fill:#e0e0e0" />
          <path
             d="m 56.12,114.77 c 0.32,-1.088 0.583,-1.936 2.189,-1.936 0.197,0 0.395,0.025 0.592,0.036 v 0.868 c -0.099,-0.009 -0.2,-0.027 -0.296,-0.027 -0.866,0 -0.997,0.695 -1.121,1.254 h 0.668 l 1.895,4.799 H 58.62 l -1.457,-4.086 h -0.021 l -1.118,4.086 h -1.402 l 1.498,-4.994 z"
             id="path4935"
             inkscape:connector-curvature="0"
             style="fill:#e0e0e0" />
        </g>
      </g>
      <path
         enable-background="new    "
         d="m 11.53,109.753 c 0,1.082 1.406,1.955 3.139,1.955 h 116.276 c 1.732,0 3.141,-0.799 3.141,-1.88 v -5.895 c 0,-1.08 -1.408,-2.033 -3.141,-2.033 H 14.671 c -1.732,0 -3.14,0.877 -3.14,1.957 l -0.001,5.896 0,0 z"
         id="path4937"
         inkscape:connector-curvature="0"
         style="opacity:0.35;fill:#ffffff" />
      <path
         d="m 7.357,33.412995 1.79,1.16 c 0,0 1.276,1.206 2.389,2.492 0.663,0.767 1.218,3.466 2.036,4.151 0.821,0.683 1.993,0.831 2.987,0.831 0.277,0 23.058,0 23.335,0 0.995,0 2.164,-0.145 2.986,-0.831 0.82,-0.685 1.378,-3.384 2.039,-4.151 1.111,-1.286 2.389,-2.492 2.389,-2.492 l 1.79,-1.16 H 7.357 z"
         id="path4941"
         inkscape:connector-curvature="0"
         style="fill:#1a1a1a" />
      <path
         enable-background="new    "
         d="m 9.941,33.574994 0.466,0.145 c 0,0 0,0.539 1.037,1.111 0.623,0.342 1.138,0.492 1.904,0.798 0.768,0.305 1.858,0.37 2.791,0.37 0.258,0 23.918,0 24.181,0 0.932,0 2.021,-0.065 2.787,-0.37 0.768,-0.306 1.286,-0.456 1.904,-0.798 1.041,-0.573 1.04,-1.111 1.04,-1.111 l 0.458,-0.144 -36.568,-0.001 z"
         id="path4943"
         inkscape:connector-curvature="0"
         style="opacity:0.2;fill:#ffffff" />
      <path
         d="m 98.374,33.412995 1.79,1.16 c 0,0 1.276,1.206 2.389,2.492 0.663,0.767 1.219,3.466 2.036,4.151 0.82,0.683 1.993,0.831 2.987,0.831 0.278,0 23.058,0 23.334,0 0.996,0 2.165,-0.145 2.988,-0.831 0.818,-0.685 1.376,-3.384 2.036,-4.151 1.112,-1.286 2.39,-2.492 2.39,-2.492 l 1.79,-1.16 h -41.74 z"
         id="path4947"
         inkscape:connector-curvature="0"
         style="fill:#1a1a1a" />
      <path
         enable-background="new    "
         d="m 100.958,33.574994 0.468,0.145 c 0,0 0,0.539 1.036,1.111 0.623,0.342 1.138,0.492 1.904,0.798 0.771,0.305 1.858,0.37 2.791,0.37 0.258,0 23.919,0 24.182,0 0.932,0 2.021,-0.065 2.788,-0.37 0.768,-0.306 1.284,-0.456 1.905,-0.798 1.039,-0.573 1.038,-1.111 1.038,-1.111 l 0.458,-0.144 -36.57,-0.001 z"
         id="path4949"
         inkscape:connector-curvature="0"
         style="opacity:0.2;fill:#ffffff" />
      <path
         d="m 7.357,132.767 1.79,-1.161 c 0,0 1.276,-1.205 2.389,-2.492 0.663,-0.766 1.218,-3.466 2.036,-4.15 0.821,-0.685 1.993,-0.83 2.987,-0.83 0.277,0 23.058,0 23.335,0 0.995,0 2.164,0.143 2.986,0.83 0.82,0.685 1.378,3.385 2.039,4.15 1.111,1.287 2.389,2.492 2.389,2.492 l 1.79,1.161 H 7.357 z"
         id="path4953"
         inkscape:connector-curvature="0"
         style="fill:#1a1a1a" />
      <path
         d="m 9.941,131.893 0.466,-0.145 c 0,0 0,-0.539 1.037,-1.111 0.623,-0.344 1.138,-0.492 1.904,-0.798 0.768,-0.306 1.858,-0.37 2.791,-0.37 0.258,0 23.918,0 24.181,0 0.932,0 2.021,0.064 2.787,0.37 0.768,0.304 1.286,0.454 1.904,0.798 1.041,0.572 1.04,1.111 1.04,1.111 l 0.458,0.141 -36.568,0.004 z"
         id="path4955"
         inkscape:connector-curvature="0" />
      <path
         d="m 98.374,132.767 1.79,-1.161 c 0,0 1.276,-1.205 2.389,-2.492 0.663,-0.766 1.219,-3.466 2.036,-4.15 0.82,-0.685 1.993,-0.83 2.987,-0.83 0.278,0 23.058,0 23.334,0 0.996,0 2.165,0.143 2.988,0.83 0.819,0.686 1.376,3.385 2.036,4.15 1.112,1.287 2.39,2.492 2.39,2.492 l 1.79,1.161 h -41.74 z"
         id="path4959"
         inkscape:connector-curvature="0"
         style="fill:#1a1a1a" />
      <path
         d="m 100.958,131.893 0.468,-0.145 c 0,0 0,-0.539 1.036,-1.111 0.623,-0.344 1.138,-0.492 1.904,-0.798 0.771,-0.306 1.858,-0.37 2.791,-0.37 0.258,0 23.919,0 24.182,0 0.932,0 2.021,0.064 2.788,0.37 0.768,0.304 1.284,0.454 1.905,0.798 1.039,0.572 1.038,1.111 1.038,1.111 l 0.458,0.141 -36.57,0.004 z"
         id="path4961"
         inkscape:connector-curvature="0" />
      <path
         style="fill:none;stroke:#c9c9c9;stroke-width:0.86400002;stroke-miterlimit:4;stroke-opacity:1;stroke-dasharray:none"
         inkscape:connector-curvature="0"
         id="path4771-9"
         d="m 2.1232,51.201741 v 14.456 c 0,0.594 0.583,1.08 1.2949999,1.08 h 1.4649996" />
      <path
         style="fill:none;stroke:#c9c9c9;stroke-width:0.86278176;stroke-linecap:butt;stroke-linejoin:miter;stroke-miterlimit:4;stroke-opacity:1;stroke-dasharray:none"
         d="m 3.9854991,66.738651 136.4145009,0 -136.4145009,0 z"
         id="path5733"
         inkscape:connector-curvature="0" />
      <path
         style="fill:none;stroke:#c9c9c9;stroke-width:0.86400002;stroke-miterlimit:4;stroke-dasharray:none"
         inkscape:connector-curvature="0"
         id="path4855"
         d="M 137.822,57.679 V 45.792 c 0,-0.594 0.386,-1.08 0.861,-1.08 0.471,0 0.86,0.486 0.86,1.08 l 0.913,15.128 c 0,0.595 0.391,1.08 0.863,1.08 0.472,0 0.863,-0.485 0.863,-1.08 l 0.912,-19.527 c 0,-0.591 0.387,-1.079 0.861,-1.079 0.474,0 0.862,0.488 0.862,1.079 V 81.43" />
    </g>
  </g>
</svg>
