<?xml version="1.0" encoding="UTF-8" standalone="no"?>
<!-- Created with Inkscape (http://www.inkscape.org/) -->

<svg
   xmlns:dc="http://purl.org/dc/elements/1.1/"
   xmlns:cc="http://creativecommons.org/ns#"
   xmlns:rdf="http://www.w3.org/1999/02/22-rdf-syntax-ns#"
   xmlns:svg="http://www.w3.org/2000/svg"
   xmlns="http://www.w3.org/2000/svg"
   version="1.1"
   width="16.9524"
   height="22.344301"
   viewBox="0 0 18.836 24.827"
   id="svg3307">
  <metadata
     id="metadata3334">
    <rdf:RDF>
      <cc:Work
         rdf:about="">
        <dc:format>image/svg+xml</dc:format>
        <dc:type
           rdf:resource="http://purl.org/dc/dcmitype/StillImage" />
        <dc:title></dc:title>
      </cc:Work>
    </rdf:RDF>
  </metadata>
  <defs
     id="defs3332" />
  <g
     id="breadboard">
    <rect
       width="3"
       height="1"
       x="2.9189999"
       y="14.826061"
       id="connector0pin"
       style="fill:none" />
    <rect
       width="3"
       height="1"
       x="12.919"
       y="14.826061"
       id="connector1pin"
       style="fill:none" />
    <line
       id="connector0leg"
       x1="4.4099998"
       y1="24.827061"
       x2="4.4099998"
       y2="44.827061"
       style="fill:none;stroke:#8c8c8c;stroke-width:3;stroke-linecap:round" />
    <line
       id="connector1leg"
       x1="14.433"
       y1="24.827061"
       x2="14.433"
       y2="44.827061"
       style="fill:none;stroke:#8c8c8c;stroke-width:3;stroke-linecap:round" />
    <g
       transform="translate(0,6.1133851e-5)"
       id="g3314">
      <path
         d="M 4.02,18.675 C 3.292,17.963 2.985,17.145 3,16.73 c 0.022,-1.325 0.2,-2.381 1.354,-3.563 1.5,-1.5 2.874,-2.875 2.874,-2.875 L 5.107,8.171 c -0.004,0.002 -1.376,1.375 -2.876,2.874 -1.849,1.817 -2.253,4.012 -2.23,5.686 0.018,1.504 0.747,2.904 1.897,4.066 0.11,0.072 0.49,0.775 0.686,1.59 0.216,0.819 0.337,1.774 0.335,2.44 v 0 h 3 v 0 C 5.917,23.842 5.768,22.712 5.485,21.626 5.18,20.539 4.828,19.52 4.02,18.675 z"
         id="path3316"
         style="fill:#8c8c8c" />
      <path
         d="M 16.603,11.043 C 15.102,9.543 13.729,8.167 13.729,8.167 l -2.122,2.123 c 0.002,0.002 1.375,1.375 2.874,2.874 1.151,1.184 1.332,2.24 1.354,3.565 0.016,0.416 -0.292,1.232 -1.02,1.944 -0.81,0.847 -1.16,1.865 -1.465,2.95 -0.282,1.084 -0.432,2.215 -0.436,3.201 h 0.005 v 0 h 3 v 0 h -0.001 c -0.002,-0.665 0.12,-1.621 0.336,-2.44 0.195,-0.813 0.572,-1.517 0.685,-1.589 1.151,-1.165 1.881,-2.566 1.896,-4.066 0.023,-1.673 -0.383,-3.868 -2.232,-5.686 z"
         id="path3318"
         style="fill:#8c8c8c" />
      <path
         d="M 17.731,11.986 C 17.032,11.13 16.085,9.937 16.085,8.063 V 2.375 C 16.085,0.708 15.214,0 13.981,0 12.252,0 11.731,0.604 9.856,0.604 H 8.981 C 7.106,0.604 6.585,0 4.856,0 3.623,0 2.752,0.708 2.752,2.375 v 5.688 c 0,1.874 -1.001,2.939 -1.646,3.84 -0.562,0.781 -1,1.91 -1,2.473 1.396,-0.604 2.5,-0.25 3.312,0.562 1.125,-1.688 3.125,-3.236 4.875,-3.236 h 2.25 c 1.75,0 3.75,1.549 4.875,3.236 0.812,-0.812 1.915,-1.166 3.312,-0.562 0.001,-0.563 -0.217,-1.432 -0.999,-2.39 z"
         id="path3320"
         style="fill:#165696" />
      <path
         d="m 18.731,14.375 c 0,-0.562 -0.222,-1.432 -1,-2.39 C 17.032,11.129 16.085,9.936 16.085,8.062 V 2.375 c 0,-0.871 -0.241,-1.474 -0.645,-1.854 -0.003,0.028 -0.021,0.058 -0.021,0.09 0,0.281 0.221,0.531 0.281,0.844 0.074,0.373 -0.094,1 -0.375,1.531 -0.281,0.531 -1,1.656 -1,2.656 0,1.153 0.219,2.219 0.531,2.969 0.297,0.712 0.844,1.625 1.594,2.344 0.75,0.719 1,1.594 1.062,1.938 0.062,0.344 -0.153,0.594 -0.594,0.812 -0.438,0.218 -1.22,0.156 -1.562,0.031 -0.346,-0.125 -1.125,-0.812 -1.472,-1.25 -0.344,-0.438 -0.719,-1.188 -1.25,-1.812 -0.5,-0.588 -1.625,-1.403 -3.125,-1.403 -1.5,0 -2.969,1.028 -3.719,1.778 -0.75,0.75 -1.281,1.722 -1.562,2 C 3.947,13.33 3.572,13.646 3.197,13.705 2.822,13.767 2.447,13.58 2.135,13.58 1.877,13.58 1.64,13.723 1.37,14.083 2.186,14.06 2.87,14.39 3.418,14.938 4.543,13.25 6.543,11.702 8.293,11.702 h 2.25 c 1.75,0 3.75,1.549 4.875,3.236 0.813,-0.813 1.916,-1.166 3.313,-0.563 z"
         id="path3322"
         style="opacity:0.16000001" />
      <path
         d="M 5.628,2.006 C 5.628,2.52 4.89,3.053 4.58,3.053 4.018,3.053 3.682,2.48 3.682,1.912 3.682,1.35 4.137,0.891 4.703,0.891 5.265,0.892 5.628,1.443 5.628,2.006 z"
         id="path3324"
         style="opacity:0.3;fill:#ffffff" />
      <path
         d="m 1.274,12.944 c 0,-0.271 0.083,-0.604 0.271,-0.854 0.258,-0.344 0.82,-0.896 1.083,-1.271 C 2.92,10.403 3.024,10.028 3.087,9.673 3.14,9.385 3.349,9.048 3.566,9.048 c 0.217,0 0.417,0.347 0.417,0.688 0,0.341 -0.1,0.771 -0.354,1.188 -0.271,0.438 -0.729,0.833 -1.062,1.104 -0.338,0.273 -0.564,0.603 -0.647,0.812 -0.054,0.139 -0.188,0.333 -0.396,0.333 -0.227,0 -0.25,-0.108 -0.25,-0.229 z"
         id="path3326"
         style="opacity:0.2;fill:#ffffff" />
      <path
         d="m 12.107,1.257 c 0,-0.444 0.438,-0.646 0.791,-0.688 0.541,-0.062 0.959,-0.125 1.334,-0.125 0.375,0 0.666,0.073 0.666,0.292 0,0.219 -0.358,0.271 -0.688,0.271 -0.33,0 -0.874,0.114 -1.124,0.208 -0.25,0.097 -0.354,0.417 -0.604,0.417 -0.229,0 -0.375,-0.167 -0.375,-0.375 z"
         id="path3328"
         style="opacity:0.2;fill:#ffffff" />
    </g>
    <text
       x="9.4150124"
       y="5.3051128"
       id="text4106"
       xml:space="preserve"
       style="font-size:4.44444418px;font-style:normal;font-variant:normal;font-weight:normal;font-stretch:normal;text-align:center;line-height:100%;letter-spacing:0px;word-spacing:0px;writing-mode:lr-tb;text-anchor:middle;fill:#ff9955;fill-opacity:1;stroke:none;font-family:OCRA;-inkscape-font-specification:OCRA"><tspan
         x="9.4150124"
         y="5.3051128"
         id="tspan4110">22</tspan><tspan
         x="9.4150124"
         y="9.7495575"
         id="tspan4112">pF</tspan></text>
  </g>
</svg>
