<?xml version="1.0" encoding="UTF-8" standalone="no"?>
<!-- Created with Inkscape (http://www.inkscape.org/) -->

<svg
   xmlns:dc="http://purl.org/dc/elements/1.1/"
   xmlns:cc="http://creativecommons.org/ns#"
   xmlns:rdf="http://www.w3.org/1999/02/22-rdf-syntax-ns#"
   xmlns:svg="http://www.w3.org/2000/svg"
   xmlns="http://www.w3.org/2000/svg"
   xmlns:sodipodi="http://sodipodi.sourceforge.net/DTD/sodipodi-0.dtd"
   xmlns:inkscape="http://www.inkscape.org/namespaces/inkscape"
   version="1.2"
   width="197.51387"
   height="169.675"
   viewBox="0 0 197.51387 169.675"
   id="svg3100"
   inkscape:version="0.48.3.1 r9886"
   sodipodi:docname="embecosm_uart_schematic.svg">
  <sodipodi:namedview
     pagecolor="#ffffff"
     bordercolor="#666666"
     borderopacity="1"
     objecttolerance="10"
     gridtolerance="10"
     guidetolerance="10"
     inkscape:pageopacity="0"
     inkscape:pageshadow="2"
     inkscape:window-width="1600"
     inkscape:window-height="850"
     id="namedview3176"
     showgrid="true"
     inkscape:showpageshadow="false"
     fit-margin-top="0"
     fit-margin-left="0"
     fit-margin-right="0"
     fit-margin-bottom="0"
     inkscape:zoom="2.4976564"
     inkscape:cx="86.043739"
     inkscape:cy="78.093779"
     inkscape:window-x="0"
     inkscape:window-y="0"
     inkscape:window-maximized="1"
     inkscape:current-layer="svg3100">
    <inkscape:grid
       type="xygrid"
       id="grid3178"
       empspacing="5"
       visible="true"
       enabled="true"
       snapvisiblegridlinesonly="true"
       dotted="true"
       originx="1.1638579px"
       originy="-7.3250027px" />
  </sodipodi:namedview>
  <desc
     id="desc3102">
    <referenceFile
       id="referenceFile3104">generic_sip_6_300mil_schem.svg</referenceFile>
  </desc>
  <metadata
     id="metadata3149">
    <rdf:RDF>
      <cc:Work
         rdf:about="">
        <dc:format>image/svg+xml</dc:format>
        <dc:type
           rdf:resource="http://purl.org/dc/dcmitype/StillImage" />
        <dc:title></dc:title>
      </cc:Work>
    </rdf:RDF>
  </metadata>
  <defs
     id="defs3147" />
  <rect
     style="fill:none;stroke:#000000;stroke-width:2.32771587;stroke-linecap:round;stroke-linejoin:round"
     id="rect3107"
     y="26.999908"
     x="1.1638579"
     height="115.00002"
     width="169.29001" />
  <line
     style="fill:none;stroke:#000000;stroke-width:2.70000029;stroke-linecap:round;stroke-linejoin:round"
     id="line3112"
     x2="85.808861"
     y2="142.67497"
     x1="85.808861"
     y1="168.325" />
  <rect
     style="fill:none;stroke-width:0"
     id="connector0pin"
     y="84.458862"
     x="-169.00005"
     height="2.7"
     width="27.000004"
     transform="matrix(0,-1,1,0,0,0)" />
  <rect
     style="fill:none;stroke-width:0"
     id="connector0terminal"
     y="166.9749"
     x="84.458862"
     height="2.7000005"
     width="2.7" />
  <line
     style="fill:none;stroke:#000000;stroke-width:2.70000029;stroke-linecap:round;stroke-linejoin:round"
     id="line3117"
     x2="196.16386"
     y2="96.999916"
     x1="170.51385"
     y1="96.999916" />
  <rect
     style="fill:none;stroke-width:0"
     id="connector1pin"
     y="95.64994"
     x="169.83887"
     height="2.7000005"
     width="27" />
  <rect
     style="fill:none;stroke-width:0"
     id="connector1terminal"
     y="95.64994"
     x="194.81386"
     height="2.7000005"
     width="2.7" />
  <line
     style="fill:none;stroke:#000000;stroke-width:2.70000029;stroke-linecap:round;stroke-linejoin:round"
     id="line3122"
     x2="85.808861"
     y2="1.3500017"
     x1="85.808861"
     y1="26.999908" />
  <rect
     style="fill:none;stroke-width:0"
     id="connector2pin"
     y="84.458862"
     x="-27.674957"
     height="2.7"
     width="27.000004"
     transform="matrix(0,-1,1,0,0,0)" />
  <rect
     style="fill:none;stroke-width:0"
     id="connector2terminal"
     y="2.5970945e-05"
     x="84.458862"
     height="2.7000005"
     width="2.7" />
  <line
     style="fill:none;stroke:#000000;stroke-width:2.70000029;stroke-linecap:round;stroke-linejoin:round"
     id="line3127"
     x2="196.16386"
     y2="46.899937"
     x1="170.51385"
     y1="46.899937" />
  <rect
     style="fill:none;stroke-width:0"
     id="connector3pin"
     y="45.549961"
     x="169.83887"
     height="2.7000005"
     width="27" />
  <rect
     style="fill:none;stroke-width:0"
     id="connector3terminal"
     y="45.549961"
     x="194.81386"
     height="2.7000005"
     width="2.7" />
  <line
     style="fill:none;stroke:#000000;stroke-width:2.70000029;stroke-linecap:round;stroke-linejoin:round"
     id="line3132"
     x2="196.16386"
     y2="71.999916"
     x1="170.51385"
     y1="71.999916" />
  <rect
     style="fill:none;stroke-width:0"
     id="connector4pin"
     y="70.650063"
     x="169.83887"
     height="2.7000005"
     width="27" />
  <rect
     style="fill:none;stroke-width:0"
     id="connector4terminal"
     y="70.650063"
     x="194.81386"
     height="2.7000005"
     width="2.7" />
  <line
     style="fill:none;stroke:#000000;stroke-width:2.70000029;stroke-linecap:round;stroke-linejoin:round"
     id="line3137"
     x2="196.16386"
     y2="122.54997"
     x1="170.51385"
     y1="122.54997" />
  <rect
     style="fill:none;stroke-width:0"
     id="connector5pin"
     y="121.2"
     x="169.83887"
     height="2.7000005"
     width="27" />
  <rect
     style="fill:none;stroke-width:0"
     id="connector5terminal"
     y="121.2"
     x="194.81386"
     height="2.7000005"
     width="2.7" />
  <text
     style="font-size:21.15000343px;text-anchor:middle;fill:#000000;stroke:none;font-family:Droid Sans"
     id="label"
     y="80.835602"
     x="85.442253">USB</text>
  <text
     style="font-size:21.15000343px;text-anchor:middle;fill:#000000;stroke:none;font-family:Droid Sans"
     id="text3110"
     y="103.2731"
     x="84.972374">UART</text>
  <text
     style="font-size:11.70000172px;text-anchor:start;fill:#000000;stroke:none;font-family:Droid Sans"
     id="label0"
     y="133.00003"
     x="73.511871">GND</text>
  <text
     style="font-size:11.70000172px;text-anchor:start;fill:#000000;stroke:none;font-family:Droid Sans"
     id="label1"
     y="101.17886"
     x="141.16388">CTS</text>
  <text
     style="font-size:11.70000172px;text-anchor:start;fill:#000000;stroke:none;font-family:Droid Sans"
     id="label2"
     y="41.999908"
     x="77.43663">Vcc</text>
  <text
     style="font-size:11.70000172px;text-anchor:start;fill:#000000;stroke:none;font-family:Droid Sans"
     id="label3"
     y="51.07608"
     x="141.16388">TXD</text>
  <text
     style="font-size:11.70000172px;text-anchor:start;fill:#000000;stroke:none;font-family:Droid Sans"
     id="label4"
     y="76.176056"
     x="141.16388">RXD</text>
  <text
     style="font-size:11.70000172px;text-anchor:start;fill:#000000;stroke:none;font-family:Droid Sans"
     id="label5"
     y="126.72611"
     x="141.16388">DTR</text>
  <path
     inkscape:connector-curvature="0"
     style="fill:#25227e;fill-opacity:1;fill-rule:evenodd;stroke:none;display:inline"
     id="path3031"
     d="m 46.311095,56.433351 c 0,11.091001 -8.991072,20.082103 -20.082124,20.082103 -6.833367,0 -12.869595,-3.413001 -16.4970005,-8.627301 0,-1.186801 0,-22.509004 0,-22.909704 3.6274145,-5.214301 9.6636065,-8.627301 16.4969465,-8.627301 11.091052,0 20.082123,8.991101 20.082123,20.082203 z" />
  <path
     inkscape:connector-curvature="0"
     style="fill:#ffffff;fill-opacity:1;stroke:none;display:inline"
     id="path3833"
     d="m 39.185146,59.798451 0,-2.1001 c 0,0 1.163971,0 1.82187,0 0.657901,0 1.25254,0.4301 1.25254,1.0121 0,0.582 -0.303651,1.1008 -1.265194,1.1008 -0.961541,0 -1.809216,-0.013 -1.809216,-0.013 z m -3.264183,-8.173001 0,10.399802 c 0,0 3.896776,-0.076 5.97168,-0.076 2.074914,0 3.593133,-0.5313 3.593133,-2.859301 0,-2.328 -2.100213,-2.6063 -2.100213,-2.6063 0,0 1.745965,-0.7338 1.745965,-2.252 0,-1.518301 -1.265193,-2.581101 -3.112363,-2.581101 -1.847177,0 -6.098202,-0.025 -6.098202,-0.025 z m 3.251529,2.1951 1.720657,0 c 0.563013,0 0.980523,0.259401 0.980523,0.942501 0,0.6832 -0.316296,0.9932 -0.974197,0.9932 l -1.726983,0 0,-1.935701 z m -17.092674,8.179402 0,-10.349302 4.175118,0 1.670049,6.098301 1.720656,-6.072901 4.124502,0 0,10.323902 -2.606282,0 0,-8.122501 -2.024299,8.147801 -2.403855,0 -2.049606,-8.071901 0,8.071901 z m -10.425142,0 0,-10.349302 8.476759,0 0,2.1762 -5.31379,0 0,1.670001 4.908925,0 0,2.1762 -4.883626,0 0,1.999 5.465611,0 0,2.378501 z" />
</svg>
